<?xml version="1.0" encoding="UTF-8"?>
<svg version="1.1" xmlns="http://www.w3.org/2000/svg" width="500" height="500">
<path d="M0 0 C6.0848018 5.28814603 8.54396902 11.66770574 9.375 19.5625 C8.65731903 26.14124223 6.47229365 31.06505529 2 36 C3.485 36.495 3.485 36.495 5 37 C5.6875 39.0625 5.6875 39.0625 6 41 C14.81686273 40.96174897 18.64158503 38.55913544 27 34 C27 44.89 27 55.78 27 67 C23.37 65.02 19.74 63.04 16 61 C10.05920977 60.03969671 10.05920977 60.03969671 5 60 C5 65.61 5 71.22 5 77 C-14.47 77 -33.94 77 -54 77 C-54.33 79.31 -54.66 81.62 -55 84 C-59.6788967 86.00647696 -64.40422734 87.0954104 -69.35546875 88.21875 C-72.12711297 88.80858026 -72.12711297 88.80858026 -74 91 C-76.19291082 91.45662153 -78.40585889 91.820412 -80.625 92.125 C-81.81351562 92.29257812 -83.00203125 92.46015625 -84.2265625 92.6328125 C-85.14179687 92.75398438 -86.05703125 92.87515625 -87 93 C-87 90.36 -87 87.72 -87 85 C-84.91835982 84.63601378 -82.83459438 84.28416713 -80.75 83.9375 C-79.58984375 83.74027344 -78.4296875 83.54304688 -77.234375 83.33984375 C-74.22353542 83.02348742 -72.82597456 83.29350636 -70 84 C-67.74083886 83.76262437 -65.4894679 83.44320954 -63.25 83.0625 C-62.07953125 82.86785156 -60.9090625 82.67320312 -59.703125 82.47265625 C-58.81109375 82.31667969 -57.9190625 82.16070312 -57 82 C-57 80.35 -57 78.7 -57 77 C-58.98 77 -60.96 77 -63 77 C-63 69.08 -63 61.16 -63 53 C-64.32 53.66 -65.64 54.32 -67 55 C-69.109375 54.94140625 -69.109375 54.94140625 -71 54 C-72.265625 51.71484375 -72.265625 51.71484375 -73.25 48.9375 C-73.58515625 48.01839844 -73.9203125 47.09929687 -74.265625 46.15234375 C-74.50796875 45.44207031 -74.7503125 44.73179687 -75 44 C-66.42857143 45 -66.42857143 45 -63 46 C-63 45.34 -63 44.68 -63 44 C-64.051875 43.9071875 -64.051875 43.9071875 -65.125 43.8125 C-70.07251607 42.41428894 -73.01909666 39.45444289 -75.8125 35.3125 C-78.0212243 29.1513217 -78.94259084 23.4951056 -76.5625 17.25 C-73.70547242 11.6158617 -68.9396449 7.97988163 -63 6 C-56.08945188 5.251255 -50.77916623 6.04442219 -45 10 C-43.63015802 11.29579647 -42.2848951 12.61992749 -41 14 C-40.01 14.33 -39.02 14.66 -38 15 C-37.9175 14.13375 -37.835 13.2675 -37.75 12.375 C-36.27665171 5.74493269 -32.27894239 1.87840665 -27 -2 C-17.97626935 -6.51186532 -8.24203365 -5.61413886 0 0 Z M-24 10 C-26.42805788 13.36795125 -27.25424769 15.97912809 -27 20.0625 C-26.22281431 24.33293086 -24.60133296 26.47140452 -21 29 C-16.83743091 30.37895807 -13.837476 30.28442581 -9.6875 28.875 C-6.58629754 26.71137038 -5.31448695 25.55684704 -4 22 C-3.71409083 17.23484712 -4.34292108 13.95575115 -7.0625 10 C-12.78508048 6.10377499 -18.24214524 5.84898843 -24 10 Z M-65 18 C-67.4915904 21.7373856 -67.45793285 23.57331583 -67 28 C-65.59121904 30.9901643 -65.59121904 30.9901643 -63 33 C-59.01997551 34.15782531 -56.97164286 34.45343333 -53.1875 32.6875 C-50.95234401 31.03765823 -50.95234401 31.03765823 -49 29 C-48.29899583 23.05812381 -48.29899583 23.05812381 -51.25 18.0625 C-56.64686293 14.01485281 -58.97924507 14.87812708 -65 18 Z M-39 31 C-39.99 32.98 -40.98 34.96 -42 37 C-38.37 37 -34.74 37 -31 37 C-32.71760829 33.92321965 -32.71760829 33.92321965 -35 31 C-36.32 31 -37.64 31 -39 31 Z M-13 42 C-13.33 42.66 -13.66 43.32 -14 44 C-12.02 43.67 -10.04 43.34 -8 43 C-7.67 43.66 -7.34 44.32 -7 45 C-7 44.01 -7 43.02 -7 42 C-8.98 42 -10.96 42 -13 42 Z M-40 48 C-43.2794032 52.7494805 -43.90475417 57.39052413 -43 63 C-40.80794622 67.38410756 -38.56884617 70.13092657 -34 72 C-28.44613115 72.52893989 -24.71446597 72.28916231 -20 69 C-17.66025758 65.25445176 -17.66025758 65.25445176 -17 61 C-19.87364791 60.58253392 -19.87364791 60.58253392 -23 61 C-24.04892238 62.63631892 -25.04906703 64.30485863 -26 66 C-29.07511463 67.29478511 -30.59659877 67.10757366 -33.8125 66.25 C-37.01448429 62.95653045 -36.56043359 60.0374124 -36.56640625 55.59375 C-36 53 -36 53 -34.15625 51.15234375 C-32 50 -32 50 -28.9375 50.0625 C-26 51 -26 51 -24.5 53.0625 C-24.005 53.701875 -23.51 54.34125 -23 55 C-19.87413125 55.33397787 -19.87413125 55.33397787 -17 55 C-18.76165623 50.03358921 -18.76165623 50.03358921 -22.0625 46.0625 C-27.99501353 43.91669723 -35.10894648 43.55358771 -40 48 Z M-9 45 C-9.66 45.66 -10.32 46.32 -11 47 C-10.01 47 -9.02 47 -8 47 C-8.33 46.34 -8.66 45.68 -9 45 Z M-8 47 C-8.33 47.66 -8.66 48.32 -9 49 C-10.65 48.67 -12.3 48.34 -14 48 C-13.01 49.485 -13.01 49.485 -12 51 C-10.35 50.67 -8.7 50.34 -7 50 C-7 49.01 -7 48.02 -7 47 C-7.33 47 -7.66 47 -8 47 Z M-2 69 C-2.33 70.32 -2.66 71.64 -3 73 C-2.01 72.67 -1.02 72.34 0 72 C-0.33 71.01 -0.66 70.02 -1 69 C-1.33 69 -1.66 69 -2 69 Z " fill="#FDFDFD" transform="translate(162,204)"/>
<path d="M0 0 C3.3 0 6.6 0 10 0 C11.98 7.92 13.96 15.84 16 24 C18.64 16.08 21.28 8.16 24 0 C26.31 0 28.62 0 31 0 C33.64 7.92 36.28 15.84 39 24 C40.98 16.08 42.96 8.16 45 0 C48.3 0 51.6 0 55 0 C54.39816303 7.31608063 52.4832809 14.2505185 50.56152344 21.31103516 C49.99607858 23.38941378 49.43883145 25.46986323 48.8828125 27.55078125 C46.15493953 37.69012094 46.15493953 37.69012094 45 40 C41.37 40 37.74 40 34 40 C32.02 33.73 30.04 27.46 28 21 C25.43498854 27.27985565 23.08242212 33.54449142 21 40 C17.37 40 13.74 40 10 40 C8.5692213 34.9481335 7.14525296 29.89441567 5.72753906 24.83886719 C5.24437798 23.11959199 4.75936582 21.40083588 4.27246094 19.68261719 C3.57258647 17.21163181 2.87940811 14.73885118 2.1875 12.265625 C1.96876221 11.49881409 1.75002441 10.73200317 1.5246582 9.94195557 C0.55853783 6.46538015 0 3.63755691 0 0 Z " fill="#FDFDFD" transform="translate(318,228)"/>
<path d="M0 0 C3.3 0 6.6 0 10 0 C10 5.28 10 10.56 10 16 C15.61 16 21.22 16 27 16 C27 10.72 27 5.44 27 0 C30.3 0 33.6 0 37 0 C37 13.2 37 26.4 37 40 C33.7 40 30.4 40 27 40 C27 35.05 27 30.1 27 25 C21.39 25 15.78 25 10 25 C10 29.95 10 34.9 10 40 C6.7 40 3.4 40 0 40 C0 26.8 0 13.6 0 0 Z " fill="#FEFEFE" transform="translate(376,228)"/>
<path d="M0 0 C4.19541627 4.6149579 5.5 7.46596443 5.5 13.75 C2.2 13.75 -1.1 13.75 -4.5 13.75 C-4.9125 12.80125 -5.325 11.8525 -5.75 10.875 C-7.22315321 7.79957237 -7.22315321 7.79957237 -9.25 6.3125 C-12.59473496 5.47631626 -15.17106331 5.96316042 -18.5 6.75 C-21.08455285 8.64533875 -21.46275506 9.63826517 -22.5 12.75 C-23.02996391 18.19232168 -22.99157975 22.28077792 -19.5 26.75 C-17.92039731 28.32960269 -16.30463184 27.91986544 -14.125 27.9375 C-13.33351562 27.95167969 -12.54203125 27.96585937 -11.7265625 27.98046875 C-9.21268667 27.89507509 -9.21268667 27.89507509 -6.5 25.75 C-5.29549696 23.19816596 -5.29549696 23.19816596 -4.5 20.75 C-1.2 20.75 2.1 20.75 5.5 20.75 C5.06516436 26.18544554 3.96772 29.51167555 0.5 33.75 C-5.61550945 38.18374435 -12.14039323 38.4829069 -19.5 37.75 C-24.81587826 36.12790779 -28.54317482 33.5264099 -31.5 28.75 C-34.46677813 22.66810484 -34.68281074 14.84279399 -32.8125 8.37109375 C-30.41343679 3.10315078 -26.98002941 -0.82944112 -21.5 -3.06640625 C-14.40213214 -5.08169373 -6.01538162 -4.61229013 0 0 Z " fill="#FDFDFD" transform="translate(227.5,231.25)"/>
<path d="M0 0 C3.04390224 4.07924314 4.50178977 7.89334515 5 13 C1.7 13 -1.6 13 -5 13 C-5.495 11.865625 -5.99 10.73125 -6.5 9.5625 C-7.77756355 7.32108067 -8.47427136 6.22280358 -10.87109375 5.20703125 C-14.49181606 4.62525167 -16.54797376 4.79803083 -19.9375 6.3125 C-22.08980875 7.83873758 -22.08980875 7.83873758 -23 10 C-23.17431846 12.12039826 -23.26709071 14.24793308 -23.3125 16.375 C-23.34988281 17.51710937 -23.38726562 18.65921875 -23.42578125 19.8359375 C-23.24721785 23.05688217 -23.24721785 23.05688217 -21.265625 25.38671875 C-18.71905099 27.20005507 -17.52566598 27.51587985 -14.4375 27.4375 C-13.67308594 27.43621094 -12.90867187 27.43492187 -12.12109375 27.43359375 C-9.47362162 26.89239779 -8.60581824 26.15247977 -7 24 C-6.67 22.68 -6.34 21.36 -6 20 C-2.37 20 1.26 20 5 20 C3.85990073 26.0114325 2.5640417 29.6388046 -2 34 C-7.79746098 37.47847659 -13.33543728 37.69894232 -20 37 C-26.06032174 35.31105788 -29.54033032 32.10823711 -33 27 C-35.19133141 20.42600578 -35.30796919 10.81972224 -32.5 4.375 C-29.2898819 -0.83151663 -24.37156542 -3.34123183 -18.625 -4.9375 C-12.22164519 -5.04790267 -5.02121291 -4.28279925 0 0 Z " fill="#FDFDFD" transform="translate(312,232)"/>
<path d="M0 0 C2.97710055 3.79836967 3.53395651 7.24635636 4 12 C0.7 12 -2.6 12 -6 12 C-6.495 10.865625 -6.99 9.73125 -7.5 8.5625 C-8.77756355 6.32108067 -9.47427136 5.22280358 -11.87109375 4.20703125 C-15.49181606 3.62525167 -17.54797376 3.79803083 -20.9375 5.3125 C-23.08980875 6.83873758 -23.08980875 6.83873758 -24 9 C-24.12257461 10.95549256 -24.17552388 12.91570618 -24.1875 14.875 C-24.20876953 16.44894531 -24.20876953 16.44894531 -24.23046875 18.0546875 C-24.00288356 20.96314913 -23.59850171 22.58822549 -22 25 C-19.67313547 26.16343227 -18.15278587 26.19895988 -15.5625 26.25 C-14.38880859 26.28867187 -14.38880859 26.28867187 -13.19140625 26.328125 C-10.43327804 25.91514324 -9.68785353 25.18485996 -8 23 C-7.34 21.68 -6.68 20.36 -6 19 C-2.7 19 0.6 19 4 19 C3.40548493 25.24240822 1.07812129 29.07773781 -3.5 33.3125 C-8.73084749 36.84332206 -14.88032735 36.60942798 -21 36 C-26.34233303 34.36983536 -29.9803145 31.76181176 -33 27 C-35.98168019 20.76753492 -36.00419524 13.47180693 -34.5 6.7734375 C-32.57504351 1.80792474 -29.27532034 -1.83316906 -24.5625 -4.25 C-15.72681862 -6.83605309 -7.24036879 -6.18080262 0 0 Z " fill="#FDFDFD" transform="translate(271,233)"/>
<path d="M0 0 C2.64 0 5.28 0 8 0 C9.68216702 3.56223605 10.08637855 5.25802944 9 9 C9.37907282 11.18703385 9.37907282 11.18703385 10 13 C9.01 13 8.02 13 7 13 C6.67 11.35 6.34 9.7 6 8 C4.68 8 3.36 8 2 8 C2 9.65 2 11.3 2 13 C1.34 13 0.68 13 0 13 C0 8.71 0 4.42 0 0 Z M2 2 C2 3.32 2 4.64 2 6 C3.65 5.67 5.3 5.34 7 5 C7 4.01 7 3.02 7 2 C5.35 2 3.7 2 2 2 Z " fill="#FCFCFC" transform="translate(331,282)"/>
<path d="M0 0 C0.66 0 1.32 0 2 0 C2 1.65 2 3.3 2 5 C3.98 5 5.96 5 8 5 C8 3.35 8 1.7 8 0 C8.66 0 9.32 0 10 0 C10 4.29 10 8.58 10 13 C9.34 13 8.68 13 8 13 C8 11.35 8 9.7 8 8 C6.02 8 4.04 8 2 8 C2 9.65 2 11.3 2 13 C1.34 13 0.68 13 0 13 C0 8.71 0 4.42 0 0 Z " fill="#FBFBFB" transform="translate(249,282)"/>
<path d="M0 0 C2.97 0 5.94 0 9 0 C9 0.66 9 1.32 9 2 C6.69 2 4.38 2 2 2 C2 2.99 2 3.98 2 5 C4.31 5 6.62 5 9 5 C9 5.66 9 6.32 9 7 C6.69 7 4.38 7 2 7 C2 8.32 2 9.64 2 11 C4.31 11 6.62 11 9 11 C9.33 11.66 9.66 12.32 10 13 C6.7 13 3.4 13 0 13 C0 8.71 0 4.42 0 0 Z " fill="#F7F9F8" transform="translate(271,282)"/>
<path d="M0 0 C2.97 0 5.94 0 9 0 C9 0.66 9 1.32 9 2 C6.69 2 4.38 2 2 2 C2 2.99 2 3.98 2 5 C4.31 5 6.62 5 9 5 C9 5.66 9 6.32 9 7 C6.69 7 4.38 7 2 7 C2 8.32 2 9.64 2 11 C4.31 11 6.62 11 9 11 C9 11.66 9 12.32 9 13 C6.03 13 3.06 13 0 13 C0 8.71 0 4.42 0 0 Z " fill="#FAFBFA" transform="translate(352,282)"/>
<path d="M0 0 C0.66 0 1.32 0 2 0 C2.67305018 1.60149886 3.33822227 3.20631029 4 4.8125 C4.37125 5.70582031 4.7425 6.59914063 5.125 7.51953125 C6 10 6 10 6 13 C5.34 13 4.68 13 4 13 C3.67 12.34 3.34 11.68 3 11 C0.47266765 10.34444881 0.47266765 10.34444881 -2 10 C-2 10.99 -2 11.98 -2 13 C-2.66 13 -3.32 13 -4 13 C-3.71517632 11.58194169 -3.42181856 10.16559621 -3.125 8.75 C-2.96257812 7.96109375 -2.80015625 7.1721875 -2.6328125 6.359375 C-2.00849925 4.03168856 -1.15161458 2.10968048 0 0 Z M0 5 C0 5.99 0 6.98 0 8 C0.66 8 1.32 8 2 8 C2 7.01 2 6.02 2 5 C1.34 5 0.68 5 0 5 Z " fill="#FCFCFC" transform="translate(295,282)"/>
<path d="M0 0 C2.97 0 5.94 0 9 0 C9 0.66 9 1.32 9 2 C8.01 2 7.02 2 6 2 C6 5.63 6 9.26 6 13 C5.01 13 4.02 13 3 13 C3 9.37 3 5.74 3 2 C2.01 2 1.02 2 0 2 C0 1.34 0 0.68 0 0 Z " fill="#FDFDFD" transform="translate(311,282)"/>
<path d="M0 0 C3.3 0 6.6 0 10 0 C10 0.66 10 1.32 10 2 C8.68 2 7.36 2 6 2 C6 5.63 6 9.26 6 13 C5.34 13 4.68 13 4 13 C4 9.37 4 5.74 4 2 C2.68 2 1.36 2 0 2 C0 1.34 0 0.68 0 0 Z " fill="#FAFBFA" transform="translate(229,282)"/>
<path d="M0 0 C1.98 0.495 1.98 0.495 4 1 C3.67 2.32 3.34 3.64 3 5 C1.68 4.67 0.36 4.34 -1 4 C-0.67 2.68 -0.34 1.36 0 0 Z " fill="#F7FCFD" transform="translate(142,225)"/>
<path d="M0 0 C0.99 0.66 1.98 1.32 3 2 C2.67 2.99 2.34 3.98 2 5 C0.68 4.67 -0.64 4.34 -2 4 C-2 3.01 -2 2.02 -2 1 C-1.34 0.67 -0.68 0.34 0 0 Z " fill="#F7FAFB" transform="translate(151,217)"/>
<path d="M0 0 C1.98 0.495 1.98 0.495 4 1 C4 1.99 4 2.98 4 4 C3.01 4.33 2.02 4.66 1 5 C0.34 4.01 -0.32 3.02 -1 2 C-0.67 1.34 -0.34 0.68 0 0 Z " fill="#F7FAFC" transform="translate(149,224)"/>
<path d="M0 0 C1.32 0 2.64 0 4 0 C4 1.32 4 2.64 4 4 C2.68 4 1.36 4 0 4 C0 2.68 0 1.36 0 0 Z " fill="#F5F9FA" transform="translate(139,219)"/>
<path d="M0 0 C1.98 0.495 1.98 0.495 4 1 C3.67 1.99 3.34 2.98 3 4 C1.68 3.67 0.36 3.34 -1 3 C-0.67 2.01 -0.34 1.02 0 0 Z " fill="#FCFCFC" transform="translate(144,214)"/>
<path d="M0 0 C1.32 0.33 2.64 0.66 4 1 C3.67 1.99 3.34 2.98 3 4 C2.01 3.67 1.02 3.34 0 3 C0 2.01 0 1.02 0 0 Z " fill="#F5FAFB" transform="translate(100,231)"/>
<path d="M0 0 C0.99 0.33 1.98 0.66 3 1 C3 1.99 3 2.98 3 4 C1.68 3.67 0.36 3.34 -1 3 C-0.67 2.01 -0.34 1.02 0 0 Z " fill="#F7F8F8" transform="translate(107,224)"/>
<path d="M0 0 C0.99 0 1.98 0 3 0 C3 1.32 3 2.64 3 4 C2.01 4 1.02 4 0 4 C0 2.68 0 1.36 0 0 Z " fill="#FAFDFD" transform="translate(106,230)"/>
<path d="M0 0 C1.32 0.33 2.64 0.66 4 1 C3.67 1.66 3.34 2.32 3 3 C2.01 3 1.02 3 0 3 C0 2.01 0 1.02 0 0 Z " fill="#F9FAFA" transform="translate(98,226)"/>
<path d="M0 0 C0.99 0 1.98 0 3 0 C3 0.99 3 1.98 3 3 C1.68 2.67 0.36 2.34 -1 2 C-0.67 1.34 -0.34 0.68 0 0 Z " fill="#FCFCFD" transform="translate(102,222)"/>
</svg>
