<?xml version="1.0" encoding="UTF-8"?>
<svg version="1.1" xmlns="http://www.w3.org/2000/svg" width="356" height="108">
<path d="M0 0 C5.6098304 4.8753605 8.28869285 10.76398905 9.28125 18.0703125 C9.59580499 24.754606 7.39653036 30.97539388 3 36 C3.66 36.33 4.32 36.66 5 37 C5.625 39.0625 5.625 39.0625 6 41 C14.81686273 40.96174897 18.64158503 38.55913544 27 34 C27 45.22 27 56.44 27 68 C23.37 66.02 19.74 64.04 16 62 C10.05920977 61.03969671 10.05920977 61.03969671 5 61 C5 66.61 5 72.22 5 78 C-14.47 78 -33.94 78 -54 78 C-54.33 80.31 -54.66 82.62 -55 85 C-59.6788967 87.00647696 -64.40422734 88.0954104 -69.35546875 89.21875 C-72.12711297 89.80858026 -72.12711297 89.80858026 -74 92 C-76.19291082 92.45662153 -78.40585889 92.820412 -80.625 93.125 C-81.81351563 93.29257813 -83.00203125 93.46015625 -84.2265625 93.6328125 C-85.14179687 93.75398438 -86.05703125 93.87515625 -87 94 C-87 91.03 -87 88.06 -87 85 C-84.91835982 84.63601378 -82.83459438 84.28416713 -80.75 83.9375 C-79.58984375 83.74027344 -78.4296875 83.54304688 -77.234375 83.33984375 C-74.22353542 83.02348742 -72.82597456 83.29350636 -70 84 C-67.74083886 83.76262437 -65.4894679 83.44320954 -63.25 83.0625 C-62.07953125 82.86785156 -60.9090625 82.67320313 -59.703125 82.47265625 C-58.81109375 82.31667969 -57.9190625 82.16070312 -57 82 C-57 80.68 -57 79.36 -57 78 C-58.98 78 -60.96 78 -63 78 C-63 70.08 -63 62.16 -63 54 C-64.32 54.66 -65.64 55.32 -67 56 C-67.99 56 -68.98 56 -70 56 C-70.83819158 54.37750059 -71.6704116 52.75191503 -72.5 51.125 C-72.9640625 50.22007813 -73.428125 49.31515625 -73.90625 48.3828125 C-75 46 -75 46 -75 44 C-72.03 44.33 -69.06 44.66 -66 45 C-66.54269531 44.63648438 -67.08539063 44.27296875 -67.64453125 43.8984375 C-72.91072156 40.19787134 -75.50716992 37.20706658 -77.6875 31.0625 C-78.72688239 24.20257623 -77.80150674 18.80229976 -74 13 C-68.36568033 7.5697402 -63.40669155 5.63544257 -55.63671875 5.71484375 C-49.45067514 6.38385291 -45.15207704 9.5403617 -41 14 C-40.01 14.33 -39.02 14.66 -38 15 C-37.9175 14.13375 -37.835 13.2675 -37.75 12.375 C-36.27665171 5.74493269 -32.27894239 1.87840665 -27 -2 C-17.97626935 -6.51186532 -8.24203365 -5.61413886 0 0 Z M-24 11 C-26.40415469 14.41234859 -27 16.38189691 -27 20.5625 C-25.7688666 24.79452105 -24.56943833 26.41785313 -21 29 C-16.84279983 30.38573339 -13.83250057 30.28273604 -9.6875 28.875 C-6.61802252 26.73350408 -5.32482443 25.5068882 -4 22 C-4 17.15150147 -4.27967783 15.0259134 -7.0625 11.0625 C-12.74354584 7.07368058 -18.23702452 6.84529674 -24 11 Z M-65 19 C-67.34168764 22.51253146 -67.49623677 23.86469356 -67 28 C-64.91786087 31.74785043 -63.7052961 32.79482295 -59.5625 34 C-55.60862202 34 -54.08787786 33.38207721 -51 31 C-48.66795289 29.07357392 -48.66795289 29.07357392 -48.5625 25.6875 C-48.69025824 21.883158 -48.69025824 21.883158 -51.25 19.125 C-56.613316 14.98061946 -58.96742766 15.87199953 -65 19 Z M-39 32 C-39.66 33.65 -40.32 35.3 -41 37 C-38.03 37 -35.06 37 -32 37 C-33.21030974 34.42672567 -33.21030974 34.42672567 -35 32 C-36.32 32 -37.64 32 -39 32 Z M-8 43 C-7 45 -7 45 -7 45 Z M-40 49 C-43.03217022 53.49597654 -43.95138112 57.70397845 -43 63 C-40.77863437 67.36045847 -38.56432971 70.13277421 -34 72 C-28.48112368 72.52560727 -24.64289435 72.3472029 -20 69 C-18.64319408 66.69598995 -17.86817201 64.55628426 -17 62 C-19.87364791 61.58253392 -19.87364791 61.58253392 -23 62 C-24.04892238 63.63631892 -25.04906703 65.30485863 -26 67 C-28.375 68 -28.375 68 -31 68 C-33.62890625 66.875 -33.62890625 66.875 -36 65 C-36.62890625 62.1875 -36.62890625 62.1875 -36.5625 59 C-36.56443359 57.4221875 -36.56443359 57.4221875 -36.56640625 55.8125 C-36 53 -36 53 -34.15625 51.12109375 C-32 50 -32 50 -28.9375 50.0625 C-25.51877643 51.15358199 -25.06138915 52.22160592 -23 55 C-20.37374861 55.33425735 -20.37374861 55.33425735 -18 55 C-18.19962872 51.40668306 -18.78738628 50.20171045 -21.4375 47.6875 C-27.44669674 44.84103839 -34.78800677 44.26182433 -40 49 Z M-8 48 C-7 50 -7 50 -7 50 Z M-2 70 C-2.33 70.99 -2.66 71.98 -3 73 C-2.01 72.67 -1.02 72.34 0 72 C-0.66 71.34 -1.32 70.68 -2 70 Z " fill="#F1F1F1" transform="translate(99,8)"/>
<path d="M0 0 C3.3 0 6.6 0 10 0 C11.98 7.92 13.96 15.84 16 24 C18.64 16.08 21.28 8.16 24 0 C26.31 0 28.62 0 31 0 C33.64 7.92 36.28 15.84 39 24 C40.98 16.08 42.96 8.16 45 0 C48.3 0 51.6 0 55 0 C54.45451034 7.71356477 52.59732486 14.95257933 50.56152344 22.38647461 C49.99501553 24.4557063 49.43814674 26.5273538 48.8828125 28.59960938 C46.16449458 38.67101085 46.16449458 38.67101085 45 41 C41.37 41 37.74 41 34 41 C32.02 34.73 30.04 28.46 28 22 C25.43498854 28.27985565 23.08242212 34.54449142 21 41 C17.37 41 13.74 41 10 41 C8.56752762 35.96691685 7.1436293 30.93151578 5.72753906 25.89379883 C5.24484996 24.18122438 4.75984574 22.46930065 4.27246094 20.75805664 C3.57133562 18.29481739 2.87863538 15.82933946 2.1875 13.36328125 C1.96876221 12.60163162 1.75002441 11.83998199 1.5246582 11.05525208 C0.43517346 7.13516213 0 4.13127166 0 0 Z " fill="#F2F2F2" transform="translate(255,32)"/>
<path d="M0 0 C3.3 0 6.6 0 10 0 C10 5.28 10 10.56 10 16 C15.61 16 21.22 16 27 16 C27 10.72 27 5.44 27 0 C30.3 0 33.6 0 37 0 C37 13.53 37 27.06 37 41 C33.7 41 30.4 41 27 41 C27 36.05 27 31.1 27 26 C21.39 26 15.78 26 10 26 C10 30.95 10 35.9 10 41 C6.7 41 3.4 41 0 41 C0 27.47 0 13.94 0 0 Z " fill="#F4F4F4" transform="translate(313,32)"/>
<path d="M0 0 C3.52891958 3.88181153 5.39339499 6.83110982 5.6875 12.125 C5.5946875 13.424375 5.5946875 13.424375 5.5 14.75 C2.2 14.75 -1.1 14.75 -4.5 14.75 C-4.9125 13.80125 -5.325 12.8525 -5.75 11.875 C-7.22315321 8.79957237 -7.22315321 8.79957237 -9.25 7.3125 C-12.59473496 6.47631626 -15.17106331 6.96316042 -18.5 7.75 C-21.08455285 9.64533875 -21.46275506 10.63826517 -22.5 13.75 C-22.84954721 19.1679817 -22.88917029 22.27629521 -19.5 26.75 C-17.92039731 28.32960269 -16.30463184 27.91986544 -14.125 27.9375 C-13.33351562 27.95167969 -12.54203125 27.96585938 -11.7265625 27.98046875 C-9.21268667 27.89507509 -9.21268667 27.89507509 -6.5 25.75 C-5.29549696 23.19816596 -5.29549696 23.19816596 -4.5 20.75 C-1.2 20.75 2.1 20.75 5.5 20.75 C5.09754037 26.58566459 4.37546456 30.12097288 0.5 34.75 C-5.61550945 39.18374435 -12.14039323 39.4829069 -19.5 38.75 C-24.81587826 37.12790779 -28.54317482 34.5264099 -31.5 29.75 C-34.16442358 22.9151743 -34.8173826 15.43569039 -32.8125 8.3046875 C-30.42412494 3.07016549 -26.9371655 -0.8469383 -21.5 -3.06640625 C-14.40213214 -5.08169373 -6.01538162 -4.61229013 0 0 Z " fill="#EBEBEB" transform="translate(164.5,35.25)"/>
<path d="M0 0 C3.27968262 4.73731934 4.53415241 8.29336699 5 14 C1.7 14 -1.6 14 -5 14 C-5.495 12.865625 -5.99 11.73125 -6.5 10.5625 C-7.77756355 8.32108067 -8.47427136 7.22280358 -10.87109375 6.20703125 C-14.49181606 5.62525167 -16.54797376 5.79803083 -19.9375 7.3125 C-22.08980875 8.83873758 -22.08980875 8.83873758 -23 11 C-23.17369832 12.95339423 -23.26696102 14.91442704 -23.3125 16.875 C-23.34988281 17.92429687 -23.38726562 18.97359375 -23.42578125 20.0546875 C-23.22433236 23.08310519 -23.22433236 23.08310519 -21.265625 25.35546875 C-18.71692606 27.20547264 -17.54613009 27.51639924 -14.4375 27.4375 C-13.67308594 27.43621094 -12.90867188 27.43492188 -12.12109375 27.43359375 C-9.47362162 26.89239779 -8.60581824 26.15247977 -7 24 C-6.67 22.68 -6.34 21.36 -6 20 C-2.37 20 1.26 20 5 20 C3.90437723 26.57373659 2.91556038 30.41214364 -2 35 C-7.79746098 38.47847659 -13.33543728 38.69894232 -20 38 C-26.06032174 36.31105788 -29.54033032 33.10823711 -33 28 C-35.24582972 21.26251085 -35.3540633 10.85044236 -32.5 4.3125 C-29.2735393 -0.84071639 -24.33698702 -3.35083694 -18.625 -4.9375 C-12.22164519 -5.04790267 -5.02121291 -4.28279925 0 0 Z " fill="#EAEAEA" transform="translate(249,36)"/>
<path d="M0 0 C3.29690949 4.09271523 3.56872624 7.91096969 4 13 C0.7 13 -2.6 13 -6 13 C-6.4125 12.05125 -6.825 11.1025 -7.25 10.125 C-8.72610391 7.06473796 -8.72610391 7.06473796 -10.6875 5.5625 C-14.16558063 4.71648039 -17.61282536 4.78979797 -21 6 C-23.22525049 8.20511248 -23.93696991 9.5391348 -24.36328125 12.65625 C-24.34652344 13.5946875 -24.32976562 14.533125 -24.3125 15.5 C-24.30863281 16.4384375 -24.30476562 17.376875 -24.30078125 18.34375 C-23.99378053 21.05492518 -23.4688701 22.71624436 -22 25 C-19.67313547 26.16343227 -18.15278587 26.19895988 -15.5625 26.25 C-14.38880859 26.28867188 -14.38880859 26.28867188 -13.19140625 26.328125 C-10.43327804 25.91514324 -9.68785353 25.18485996 -8 23 C-7.34 21.68 -6.68 20.36 -6 19 C-2.7 19 0.6 19 4 19 C3.45838576 25.770178 1.48059171 29.70545266 -3.5 34.3125 C-8.73084749 37.84332206 -14.88032735 37.60942798 -21 37 C-26.34233303 35.36983536 -29.9803145 32.76181176 -33 28 C-36.1315426 21.54472627 -36.01340006 13.64738935 -34.5 6.70703125 C-32.58611225 1.78094518 -29.23388532 -1.85441779 -24.5625 -4.25 C-15.72681862 -6.83605309 -7.24036879 -6.18080262 0 0 Z " fill="#EAEAEA" transform="translate(208,37)"/>
<path d="M0 0 C-0.5 1.8671875 -0.5 1.8671875 -2 4 C-4.71836366 4.89635698 -7.21441261 5.56496058 -10 6.125 C-15.48370592 7.04506392 -15.48370592 7.04506392 -20 10 C-22.19291082 10.45662153 -24.40585889 10.820412 -26.625 11.125 C-28.40777344 11.37636719 -28.40777344 11.37636719 -30.2265625 11.6328125 C-31.14179688 11.75398438 -32.05703125 11.87515625 -33 12 C-33 9.03 -33 6.06 -33 3 C-30.91835982 2.63601378 -28.83459438 2.28416713 -26.75 1.9375 C-25.00976562 1.64166016 -25.00976562 1.64166016 -23.234375 1.33984375 C-20 1 -20 1 -17.98828125 1.53515625 C-14.92080857 2.25230605 -12.45008419 1.2951303 -9.4375 0.5 C-3.32720355 -1.10906785 -3.32720355 -1.10906785 0 0 Z " fill="#DDDDDD" transform="translate(45,90)"/>
<path d="M0 0 C2.97 0 5.94 0 9 0 C9 0.99 9 1.98 9 3 C6.69 3 4.38 3 2 3 C2 3.66 2 4.32 2 5 C4.31 5 6.62 5 9 5 C9 5.99 9 6.98 9 8 C6.69 8 4.38 8 2 8 C2 8.99 2 9.98 2 11 C4.31 11 6.62 11 9 11 C9.33 11.99 9.66 12.98 10 14 C6.7 14 3.4 14 0 14 C0 9.38 0 4.76 0 0 Z " fill="#B9BBBA" transform="translate(208,86)"/>
<path d="M0 0 C1.27875 -0.061875 2.5575 -0.12375 3.875 -0.1875 C4.95394531 -0.23970703 4.95394531 -0.23970703 6.0546875 -0.29296875 C6.69664062 -0.19628906 7.33859375 -0.09960938 8 0 C10.5042003 3.75630045 9.77125351 4.7152583 9 9 C9.36858988 11.76864953 9.36858988 11.76864953 10 14 C9.01 14 8.02 14 7 14 C6.67 12.35 6.34 10.7 6 9 C4.68 9 3.36 9 2 9 C2 10.65 2 12.3 2 14 C1.34 14 0.68 14 0 14 C0 9.38 0 4.76 0 0 Z M2 3 C2 3.99 2 4.98 2 6 C3.65 5.67 5.3 5.34 7 5 C7 4.34 7 3.68 7 3 C5.35 3 3.7 3 2 3 Z " fill="#A7A7A7" transform="translate(268,86)"/>
<path d="M0 0 C2.97 0 5.94 0 9 0 C9 0.99 9 1.98 9 3 C6.69 3 4.38 3 2 3 C2 3.66 2 4.32 2 5 C4.31 5 6.62 5 9 5 C9 5.99 9 6.98 9 8 C6.69 8 4.38 8 2 8 C2 8.99 2 9.98 2 11 C4.31 11 6.62 11 9 11 C9 11.99 9 12.98 9 14 C6.03 14 3.06 14 0 14 C0 9.38 0 4.76 0 0 Z " fill="#B9B9B9" transform="translate(289,86)"/>
<path d="M0 0 C0.66 0 1.32 0 2 0 C2 1.65 2 3.3 2 5 C3.98 5 5.96 5 8 5 C8 3.35 8 1.7 8 0 C8.66 0 9.32 0 10 0 C10 4.62 10 9.24 10 14 C9.34 14 8.68 14 8 14 C8 12.35 8 10.7 8 9 C6.02 9 4.04 9 2 9 C2 10.65 2 12.3 2 14 C1.34 14 0.68 14 0 14 C0 9.38 0 4.76 0 0 Z " fill="#CFCFCF" transform="translate(186,86)"/>
<path d="M0 0 C0.66 0 1.32 0 2 0 C2.67528223 1.57967807 3.33989694 3.16391903 4 4.75 C4.37125 5.63171875 4.7425 6.5134375 5.125 7.421875 C6 10 6 10 6 14 C5.34 14 4.68 14 4 14 C3.67 13.34 3.34 12.68 3 12 C0.47266765 11.34444881 0.47266765 11.34444881 -2 11 C-2 11.99 -2 12.98 -2 14 C-2.66 14 -3.32 14 -4 14 C-3.46148032 8.72250715 -2.22656164 4.74354436 0 0 Z M0 6 C0 6.66 0 7.32 0 8 C0.66 8 1.32 8 2 8 C2 7.34 2 6.68 2 6 C1.34 6 0.68 6 0 6 Z " fill="#E2E2E2" transform="translate(232,86)"/>
<path d="M0 0 C2.97 0 5.94 0 9 0 C9 0.99 9 1.98 9 3 C8.01 3 7.02 3 6 3 C6 6.63 6 10.26 6 14 C5.01 14 4.02 14 3 14 C3 10.37 3 6.74 3 3 C2.01 3 1.02 3 0 3 C0 2.01 0 1.02 0 0 Z " fill="#D5D5D5" transform="translate(248,86)"/>
<path d="M0 0 C-0.73046875 1.921875 -0.73046875 1.921875 -2 4 C-3.98828125 4.828125 -3.98828125 4.828125 -6.3125 5.25 C-7.51132812 5.47042969 -7.51132812 5.47042969 -8.734375 5.6953125 C-11.18300268 6.0246107 -13.53246834 6.15919559 -16 6 C-15.34 5.67 -14.68 5.34 -14 5 C-14 4.34 -14 3.68 -14 3 C-13.01 3 -12.02 3 -11 3 C-11 2.34 -11 1.68 -11 1 C-3.375 -1.125 -3.375 -1.125 0 0 Z " fill="#CACBCA" transform="translate(45,90)"/>
<path d="M0 0 C3.3 0 6.6 0 10 0 C10 0.99 10 1.98 10 3 C8.68 3 7.36 3 6 3 C6 6.63 6 10.26 6 14 C5.34 14 4.68 14 4 14 C4 10.37 4 6.74 4 3 C2.68 3 1.36 3 0 3 C0 2.01 0 1.02 0 0 Z " fill="#C8C9C9" transform="translate(166,86)"/>
<path d="M0 0 C0.66 0 1.32 0 2 0 C2 4.62 2 9.24 2 14 C1.34 14 0.68 14 0 14 C0 12.02 0 10.04 0 8 C-1.32 7.67 -2.64 7.34 -4 7 C-2.68 6.67 -1.36 6.34 0 6 C0 4.02 0 2.04 0 0 Z " fill="#EBEBEB" transform="translate(194,86)"/>
<path d="M0 0 C0.66 0 1.32 0 2 0 C2 0.66 2 1.32 2 2 C4.31 2 6.62 2 9 2 C9.33 2.99 9.66 3.98 10 5 C6.7 5 3.4 5 0 5 C0 3.35 0 1.7 0 0 Z " fill="#AFAFAF" transform="translate(208,95)"/>
<path d="M0 0 C1.98 0 3.96 0 6 0 C4.68 0.33 3.36 0.66 2 1 C2 2.65 2 4.3 2 6 C2.99 6.33 3.98 6.66 5 7 C4.01 7 3.02 7 2 7 C2 8.98 2 10.96 2 13 C1.34 13 0.68 13 0 13 C0 8.71 0 4.42 0 0 Z " fill="#EFEFEF" transform="translate(268,87)"/>
<path d="M0 0 C1.98 0.495 1.98 0.495 4 1 C3.67 2.65 3.34 4.3 3 6 C1.68 5.67 0.36 5.34 -1 5 C-0.67 3.35 -0.34 1.7 0 0 Z " fill="#C5C9CA" transform="translate(79,29)"/>
<path d="M0 0 C0.77321882 2.98241547 1.41196203 5.97580475 2 9 C1.01 9 0.02 9 -1 9 C-1.625 5.625 -1.625 5.625 -2 2 C-1.34 1.34 -0.68 0.68 0 0 Z " fill="#C7C7C7" transform="translate(276,91)"/>
<path d="M0 0 C0.66 0 1.32 0 2 0 C3.76462683 3.08809695 4 4.23312136 4 8 C3.34 8 2.68 8 2 8 C1.67 7.34 1.34 6.68 1 6 C-1.52733235 5.34444881 -1.52733235 5.34444881 -4 5 C-2.68 4.34 -1.36 3.68 0 3 C0 2.01 0 1.02 0 0 Z " fill="#B3B3B3" transform="translate(234,92)"/>
<path d="M0 0 C0.66 0 1.32 0 2 0 C2.66 1.98 3.32 3.96 4 6 C2.02 6 0.04 6 -2 6 C-1.34 4.02 -0.68 2.04 0 0 Z " fill="#DCDCDC" transform="translate(232,86)"/>
<path d="M0 0 C0.99 0.66 1.98 1.32 3 2 C2.67 3.32 2.34 4.64 2 6 C0.68 5.67 -0.64 5.34 -2 5 C-2 3.68 -2 2.36 -2 1 C-1.34 0.67 -0.68 0.34 0 0 Z " fill="#C0C2C3" transform="translate(88,21)"/>
<path d="M0 0 C1.98 0.495 1.98 0.495 4 1 C4 2.32 4 3.64 4 5 C3.01 5.33 2.02 5.66 1 6 C-0.0625 4.125 -0.0625 4.125 -1 2 C-0.67 1.34 -0.34 0.68 0 0 Z " fill="#BBBEBF" transform="translate(86,28)"/>
<path d="M0 0 C1.98 0.495 1.98 0.495 4 1 C3.67 2.32 3.34 3.64 3 5 C1.68 4.67 0.36 4.34 -1 4 C-0.67 2.68 -0.34 1.36 0 0 Z " fill="#C0C0C0" transform="translate(81,18)"/>
<path d="M0 0 C1.32 0 2.64 0 4 0 C4 1.65 4 3.3 4 5 C2.68 5 1.36 5 0 5 C0 3.35 0 1.7 0 0 Z " fill="#C4C6C7" transform="translate(76,23)"/>
<path d="M0 0 C2.64 0.33 5.28 0.66 8 1 C8 1.33 8 1.66 8 2 C4.7 2.33 1.4 2.66 -2 3 C-1.34 2.67 -0.68 2.34 0 2 C0 1.34 0 0.68 0 0 Z " fill="#898989" transform="translate(31,93)"/>
<path d="M0 0 C1.32 0.33 2.64 0.66 4 1 C3.67 2.32 3.34 3.64 3 5 C2.01 4.67 1.02 4.34 0 4 C0 2.68 0 1.36 0 0 Z " fill="#BBBFC0" transform="translate(37,35)"/>
<path d="M0 0 C0.99 0.33 1.98 0.66 3 1 C3 2.32 3 3.64 3 5 C1.68 4.67 0.36 4.34 -1 4 C-0.67 2.68 -0.34 1.36 0 0 Z " fill="#BCBCBD" transform="translate(44,28)"/>
<path d="M0 0 C0.99 0 1.98 0 3 0 C3 1.65 3 3.3 3 5 C2.01 5 1.02 5 0 5 C0 3.35 0 1.7 0 0 Z " fill="#C5C8C8" transform="translate(43,34)"/>
<path d="M0 0 C1.32 0.33 2.64 0.66 4 1 C3.67 1.99 3.34 2.98 3 4 C2.01 4 1.02 4 0 4 C0 2.68 0 1.36 0 0 Z " fill="#B2B2B2" transform="translate(35,30)"/>
<path d="M0 0 C0.99 0 1.98 0 3 0 C3 1.32 3 2.64 3 4 C1.68 3.67 0.36 3.34 -1 3 C-0.67 2.01 -0.34 1.02 0 0 Z " fill="#B3B3B5" transform="translate(39,26)"/>
</svg>
